<svg width="152" height="40" viewBox="0 0 152 40" fill="none" xmlns="http://www.w3.org/2000/svg">
<rect width="152" height="40" fill="white"/>
<path d="M12.3431 8.57119C10.5753 6.04661 7.09574 5.43306 4.57116 7.20079C2.04658 8.96852 1.43303 12.4481 3.20076 14.9727L14.7235 31.4289C16.4912 33.9535 19.9708 34.567 22.4954 32.7993C25.02 31.0315 25.6335 27.5519 23.8658 25.0274L12.3431 8.57119Z" fill="url(#paint0_linear)"/>
<path d="M24.0021 10.139C25.2144 9.29013 26.7143 8.95761 28.1718 9.21461C29.6294 9.47161 30.9251 10.2971 31.774 11.5094C32.9624 13.2067 33.428 15.3066 33.0682 17.3471C32.7084 19.3876 31.5527 21.2017 29.8554 22.3901L27.1127 24.3106L22.6317 17.9109C21.7828 16.6986 21.4503 15.1987 21.7072 13.7412C21.9642 12.2836 22.7897 10.9879 24.0021 10.139V10.139Z" fill="url(#paint1_linear)"/>
<path d="M58.9969 10.4191L51.7368 27.1272C51.5639 27.5254 51.2772 27.8645 50.9122 28.1027C50.5473 28.341 50.12 28.4679 49.6831 28.4678C49.1491 28.4679 48.6268 28.3127 48.1806 28.0214C47.7345 27.7302 47.384 27.3156 47.1726 26.829L40.0421 10.4191C40.0083 10.3412 39.9945 10.2561 40.002 10.1716C40.0095 10.0871 40.038 10.0057 40.085 9.93481C40.132 9.86392 40.196 9.80573 40.2713 9.76547C40.3465 9.72521 40.4307 9.70413 40.5162 9.70414H41.5185C42.0523 9.70412 42.5744 9.85919 43.0204 10.1502C43.4664 10.4413 43.8168 10.8555 44.0284 11.3419L48.8594 22.4487C48.9167 22.5805 49.0116 22.6927 49.1324 22.7715C49.2532 22.8503 49.3946 22.8923 49.5392 22.8923C49.6838 22.8923 49.8252 22.8503 49.946 22.7715C50.0668 22.6927 50.1617 22.5805 50.219 22.4487L55.0503 11.3419C55.2618 10.8555 55.6122 10.4412 56.0583 10.1502C56.5043 9.85911 57.0265 9.70406 57.5603 9.70414H58.5229C58.6084 9.70413 58.6925 9.72521 58.7678 9.76547C58.8431 9.80573 58.9071 9.86392 58.9541 9.93481C59.0011 10.0057 59.0296 10.0871 59.0371 10.1716C59.0446 10.2561 59.0308 10.3412 58.9969 10.4191Z" fill="#20389C"/>
<path d="M62.6161 22.8388C62.5161 22.3893 62.4633 21.9308 62.4586 21.4705V10.2164C62.4586 10.1491 62.4719 10.0825 62.4979 10.0204C62.5238 9.9582 62.5618 9.90172 62.6097 9.85415C62.6577 9.80658 62.7146 9.76885 62.7772 9.74311C62.8398 9.71737 62.907 9.70413 62.9748 9.70414H65.2903C65.4272 9.70416 65.5585 9.75814 65.6553 9.8542C65.7521 9.95027 65.8065 10.0806 65.8065 10.2164V20.7673C65.8132 21.2912 65.8594 21.8139 65.9446 22.331C66.0385 22.937 66.2456 23.5203 66.555 24.0509C66.8979 24.6266 67.378 25.1099 67.9532 25.4583C68.5699 25.8493 69.4036 26.0447 70.4544 26.0446C71.7147 26.0446 72.7256 25.8492 73.4871 25.4583C74.2486 25.0674 74.8263 24.6113 75.2203 24.09C75.5915 23.6154 75.8596 23.0697 76.008 22.4873C76.1145 22.0714 76.1927 21.6489 76.2419 21.2226C76.2435 21.2047 76.244 21.1884 76.244 21.1705V10.2164C76.244 10.1491 76.2574 10.0825 76.2834 10.0203C76.3093 9.95816 76.3474 9.90168 76.3953 9.85411C76.4433 9.80654 76.5002 9.76881 76.5629 9.74308C76.6255 9.71734 76.6927 9.70411 76.7605 9.70414H79.1154C79.1833 9.70405 79.2505 9.71724 79.3131 9.74295C79.3758 9.76865 79.4328 9.80637 79.4808 9.85395C79.5288 9.90153 79.5669 9.95803 79.5928 10.0202C79.6188 10.0824 79.6322 10.1491 79.6322 10.2164V27.9556C79.6322 28.0228 79.6188 28.0895 79.5929 28.1516C79.567 28.2138 79.5289 28.2703 79.481 28.3178C79.4331 28.3654 79.3762 28.4031 79.3135 28.4289C79.2509 28.4546 79.1838 28.4679 79.116 28.4678H76.7606C76.6928 28.4679 76.6256 28.4546 76.563 28.4289C76.5003 28.4032 76.4434 28.3654 76.3954 28.3179C76.3475 28.2703 76.3094 28.2138 76.2835 28.1517C76.2575 28.0895 76.2441 28.0229 76.2441 27.9556C76.2441 27.8594 76.2168 27.7652 76.1652 27.6837C76.1137 27.6023 76.0401 27.5369 75.9528 27.4952C75.8655 27.4534 75.7681 27.4369 75.6718 27.4476C75.5755 27.4583 75.4842 27.4958 75.4084 27.5557C75.2052 27.7178 74.991 27.8658 74.7673 27.9987C74.1919 28.3255 73.5848 28.5941 72.9553 28.8003C72.233 29.0479 71.3862 29.1717 70.415 29.1717C68.9704 29.1717 67.7756 28.9567 66.8306 28.5267C65.8856 28.0967 65.1176 27.5623 64.5265 26.9235C63.9588 26.3218 63.5111 25.6189 63.2069 24.8519C62.9444 24.2016 62.7466 23.5273 62.6161 22.8388Z" fill="#20389C"/>
<path d="M93.1811 17.0142C93.89 17.1705 94.704 17.366 95.6229 17.6006C96.5372 17.8332 97.4176 18.1814 98.2426 18.6365C99.0656 19.0891 99.7836 19.7084 100.35 20.4541C100.927 21.2103 101.216 22.1746 101.217 23.3471C101.217 25.1715 100.475 26.5983 98.9911 27.6276C97.5076 28.6569 95.4528 29.1717 92.8268 29.1719C91.9255 29.1767 91.0267 29.0782 90.1481 28.8785C89.3525 28.7 88.5843 28.4173 87.8637 28.0379C87.2076 27.6925 86.5987 27.2654 86.0517 26.767C85.708 26.4554 85.4094 26.0982 85.1643 25.7055C85.1233 25.6403 85.0975 25.5668 85.0889 25.4904C85.0802 25.414 85.0889 25.3366 85.1143 25.2639C85.1397 25.1913 85.1811 25.1252 85.2355 25.0705C85.29 25.0158 85.3561 24.9739 85.4289 24.9478L87.5304 24.2068C87.6241 24.1739 87.7253 24.1687 87.8219 24.1918C87.9184 24.2149 88.0062 24.2652 88.0745 24.3368C88.4534 24.7294 89.0133 25.077 89.7541 25.3795C90.6467 25.7448 91.671 25.9272 92.8268 25.9268C93.2205 25.9268 93.6931 25.9008 94.2446 25.8486C94.7891 25.7981 95.325 25.6799 95.8398 25.4967C96.3288 25.3282 96.7777 25.0621 97.159 24.7147C97.5264 24.3764 97.7104 23.9204 97.711 23.3467C97.7102 23.0817 97.6703 22.8182 97.5926 22.5647C97.5139 22.3047 97.3104 22.0441 96.9822 21.783C96.6539 21.5218 96.1419 21.2611 95.4463 21.001C94.75 20.741 93.7717 20.4804 92.5115 20.2192C91.6451 20.0372 90.7721 19.8352 89.8924 19.6133C89.0612 19.412 88.2648 19.0892 87.5292 18.6556C86.8506 18.2556 86.2661 17.716 85.8151 17.0731C85.1404 16.1093 84.9751 14.744 85.3193 12.9771C85.3278 12.9326 85.3416 12.8893 85.3603 12.848C86.5274 10.2852 88.9242 9.00272 92.5509 9.00049C93.4183 8.99802 94.2833 9.08981 95.1306 9.27423C95.9174 9.44246 96.6789 9.71181 97.3956 10.0755C98.0491 10.407 98.6524 10.8281 99.1877 11.3264C99.5236 11.6387 99.8115 11.9981 100.042 12.3933C100.081 12.4586 100.104 12.5315 100.111 12.6069C100.118 12.6823 100.108 12.7583 100.082 12.8294C100.056 12.9006 100.015 12.9652 99.9609 13.0187C99.9069 13.0722 99.8418 13.1132 99.77 13.1389L97.6805 13.8756C97.5797 13.9101 97.4707 13.9131 97.3682 13.8841C97.2657 13.8551 97.1747 13.7955 97.1074 13.7134C96.7774 13.3234 96.2892 12.9968 95.6426 12.7336C94.8417 12.4081 93.9293 12.2451 92.9054 12.2447C91.5661 12.2447 90.5223 12.4662 89.7741 12.9092C89.0258 13.3521 88.6515 13.9254 88.6514 14.6291C88.6487 14.848 88.6821 15.0658 88.7501 15.274C88.8151 15.4696 88.9924 15.6584 89.2818 15.8404C89.5713 16.0224 90.0243 16.2115 90.6409 16.4075C91.4757 16.6562 92.3237 16.8587 93.1811 17.0142Z" fill="#20389C"/>
<path d="M114.608 9.00031C115.87 8.98978 117.12 9.24985 118.271 9.76273C119.043 10.1093 119.763 10.5581 120.414 11.0968C120.488 11.1605 120.58 11.2015 120.678 11.2151C120.775 11.2286 120.875 11.2142 120.964 11.1734C121.054 11.1326 121.13 11.0672 121.183 10.9849C121.236 10.9026 121.265 10.8069 121.265 10.7091V10.2164C121.265 10.0806 121.319 9.95027 121.416 9.8542C121.513 9.75814 121.644 9.70416 121.781 9.70414H124.097C124.165 9.70413 124.232 9.71737 124.294 9.74311C124.357 9.76885 124.414 9.80658 124.462 9.85415C124.51 9.90172 124.548 9.9582 124.574 10.0204C124.6 10.0825 124.613 10.1491 124.613 10.2164V34.8955C124.613 34.9628 124.6 35.0294 124.574 35.0916C124.548 35.1537 124.51 35.2102 124.462 35.2578C124.414 35.3054 124.357 35.3431 124.294 35.3688C124.232 35.3946 124.165 35.4078 124.097 35.4078H121.781C121.644 35.4078 121.513 35.3538 121.416 35.2577C121.319 35.1617 121.265 35.0314 121.265 34.8955V27.4634C121.265 27.3656 121.236 27.2699 121.183 27.1877C121.13 27.1055 121.054 27.0401 120.964 26.9993C120.875 26.9585 120.775 26.944 120.678 26.9576C120.58 26.9711 120.489 27.012 120.414 27.0756C119.764 27.6144 119.043 28.0631 118.272 28.4094C117.117 28.9155 115.868 29.1752 114.606 29.1719C113.344 29.1685 112.097 28.9021 110.945 28.3899C109.806 27.8807 108.782 27.1496 107.933 26.2399C106.129 24.2896 105.137 21.7336 105.156 19.0864C105.137 16.4391 106.129 13.8828 107.932 11.9322C108.782 11.023 109.806 10.292 110.945 9.78223C112.095 9.26223 113.345 8.99548 114.608 9.00031ZM114.884 25.9275C115.733 25.9311 116.573 25.7509 117.345 25.3995C118.115 25.0517 118.805 24.553 119.374 23.9334C119.962 23.2915 120.429 22.55 120.753 21.7442C121.436 20.0368 121.436 18.135 120.753 16.4276C120.429 15.622 119.962 14.8806 119.374 14.2388C118.805 13.6192 118.115 13.1205 117.346 12.7728C116.572 12.425 115.733 12.2451 114.884 12.2451C114.035 12.2451 113.196 12.425 112.422 12.7728C111.653 13.1203 110.963 13.619 110.394 14.2388C109.808 14.8779 109.347 15.6203 109.035 16.4276C108.379 18.14 108.379 20.032 109.035 21.7443C109.346 22.5518 109.807 23.2943 110.394 23.9334C110.963 24.5531 111.653 25.0517 112.422 25.3991C113.194 25.7505 114.035 25.931 114.884 25.9275Z" fill="#20389C"/>
<path d="M148.797 10.2164V27.9555C148.797 28.0228 148.783 28.0894 148.758 28.1515C148.732 28.2137 148.694 28.2702 148.646 28.3177C148.598 28.3653 148.541 28.403 148.478 28.4288C148.416 28.4545 148.348 28.4678 148.281 28.4678H145.926C145.858 28.4678 145.791 28.4545 145.728 28.4288C145.666 28.403 145.609 28.3653 145.561 28.3177C145.513 28.2702 145.475 28.2137 145.449 28.1515C145.423 28.0894 145.41 28.0228 145.41 27.9555V27.481C145.409 27.3828 145.38 27.2867 145.327 27.2043C145.273 27.1218 145.196 27.0565 145.106 27.0159C145.016 26.9754 144.916 26.9614 144.818 26.9756C144.72 26.9899 144.628 27.0317 144.554 27.0962C143.919 27.628 143.213 28.0699 142.455 28.4092C141.297 28.9152 140.046 29.1749 138.78 29.1716C137.515 29.1682 136.265 28.9019 135.11 28.3897C133.978 27.8768 132.96 27.146 132.116 26.2396C130.312 24.2893 129.32 21.7333 129.339 19.0861C129.33 16.4523 130.321 13.9118 132.116 11.9713C132.964 11.0634 133.98 10.3267 135.11 9.80182C136.262 9.26561 137.52 8.99176 138.792 9.00031C140.054 8.98975 141.304 9.24982 142.455 9.76273C143.213 10.1022 143.919 10.5441 144.554 11.076C144.628 11.1405 144.72 11.1824 144.818 11.1966C144.916 11.2109 145.016 11.1969 145.106 11.1564C145.196 11.1158 145.273 11.0504 145.327 10.9679C145.38 10.8855 145.409 10.7894 145.41 10.6912V10.2164C145.41 10.1491 145.423 10.0825 145.449 10.0204C145.475 9.9582 145.513 9.90172 145.561 9.85415C145.609 9.80658 145.666 9.76885 145.728 9.74311C145.791 9.71737 145.858 9.70413 145.926 9.70414H148.281C148.348 9.70413 148.416 9.71737 148.478 9.74311C148.541 9.76885 148.598 9.80658 148.646 9.85415C148.694 9.90172 148.732 9.9582 148.758 10.0204C148.783 10.0825 148.797 10.1491 148.797 10.2164ZM139.068 25.9272C139.92 25.9307 140.761 25.7436 141.53 25.3799C142.293 25.0231 142.982 24.5256 143.558 23.9139C144.147 23.2838 144.608 22.5473 144.917 21.7444C145.574 20.0321 145.574 18.1401 144.917 16.4277C144.608 15.6251 144.147 14.8886 143.558 14.2582C142.981 13.6471 142.293 13.1498 141.53 12.7925C140.76 12.4323 139.919 12.2455 139.068 12.2455C138.217 12.2455 137.376 12.4323 136.606 12.7925C135.843 13.1497 135.155 13.6471 134.578 14.2585C133.663 15.252 133.048 16.4811 132.805 17.805C132.561 19.129 132.698 20.4943 133.199 21.7447C133.519 22.5463 133.987 23.282 134.578 23.9142C135.154 24.5261 135.843 25.0236 136.606 25.3802C137.375 25.7438 138.216 25.9309 139.068 25.9272Z" fill="#20389C"/>
<defs>
<linearGradient id="paint0_linear" x1="25.7067" y1="26.4306" x2="7.93975" y2="33.8014" gradientUnits="userSpaceOnUse">
<stop stop-color="#1B3294"/>
<stop offset="1" stop-color="#4663D4"/>
</linearGradient>
<linearGradient id="paint1_linear" x1="34.3821" y1="15.2148" x2="22.7076" y2="12.0286" gradientUnits="userSpaceOnUse">
<stop stop-color="#1B3294"/>
<stop offset="1" stop-color="#4663D4"/>
</linearGradient>
</defs>
</svg>
